<?xml version="1.0" encoding="UTF-8" standalone="no"?>
<svg
   version="1.0"
   width="733.70264"
   height="722.86908"
   viewBox="0 0 733.70264 722.86908"
   preserveAspectRatio="xMidYMid"
   id="svg26"
   sodipodi:docname="ProjectAtlas_Master_v1.4.svg"
   inkscape:version="1.4.3 (0d15f75, 2025-12-25)"
   xmlns:inkscape="http://www.inkscape.org/namespaces/inkscape"
   xmlns:sodipodi="http://sodipodi.sourceforge.net/DTD/sodipodi-0.dtd"
   xmlns="http://www.w3.org/2000/svg"
   xmlns:svg="http://www.w3.org/2000/svg">
  <defs
     id="defs26">
    <inkscape:path-effect
       effect="fillet_chamfer"
       id="path-effect913"
       is_visible="true"
       lpeversion="1"
       nodesatellites_param="F,0,0,1,0,0,0,1 @ F,0,0,1,0,0,0,1 @ F,0,0,1,0,0,0,1 @ F,0,0,1,0,0,0,1"
       radius="0"
       unit="px"
       method="auto"
       mode="F"
       chamfer_steps="1"
       flexible="false"
       use_knot_distance="true"
       apply_no_radius="true"
       apply_with_radius="true"
       only_selected="false"
       hide_knots="false" />
    <linearGradient
       id="linearGradient913">
      <stop
         style="stop-color:#a4adae;stop-opacity:1;"
         offset="0"
         id="stop912" />
    </linearGradient>
    <linearGradient
       id="swatch853">
      <stop
         style="stop-color:#20070f;stop-opacity:1;"
         offset="0"
         id="stop854" />
    </linearGradient>
  </defs>
  <sodipodi:namedview
     id="namedview26"
     pagecolor="#ffffff"
     bordercolor="#000000"
     borderopacity="0.25"
     inkscape:showpageshadow="2"
     inkscape:pageopacity="0.0"
     inkscape:pagecheckerboard="0"
     inkscape:deskcolor="#d1d1d1"
     showguides="false"
     inkscape:zoom="0.9395241"
     inkscape:cx="201.16568"
     inkscape:cy="389.55893"
     inkscape:window-width="1920"
     inkscape:window-height="1017"
     inkscape:window-x="-8"
     inkscape:window-y="-8"
     inkscape:window-maximized="1"
     inkscape:current-layer="layer4" />
  <g
     inkscape:groupmode="layer"
     id="layer5"
     inkscape:label="Village"
     transform="translate(-69.042931,-95.259223)">
    <path
       id="VG-16"
       style="opacity:0.79;fill:#e6e6e6;fill-opacity:1;stroke:#2ebdbd;stroke-width:0.589999;stroke-dasharray:none;stroke-opacity:0.968553"
       d="m 309.11684,174.29782 5.98555,5.98554 -5.30468,5.30468 32.13607,32.13607 71.19957,-71.19957 -0.0649,-0.0649 12.51938,-12.51938 -25.93645,-25.93645 -12.51938,12.51938 -6.13471,-6.13471 -58.31836,58.31836 -5.98554,-5.98555 z"
       inkscape:label="VG-16" />
    <path
       id="VG-15"
       style="opacity:0.79;fill:#e6e6e6;fill-opacity:1;stroke:#2ebdbd;stroke-width:0.589999;stroke-dasharray:none;stroke-opacity:0.968553"
       d="m 236.84694,245.81642 6.39572,6.39572 -17.74673,17.74673 32.15541,32.1554 83.24387,-83.24387 -32.15541,-32.1554 -57.92198,57.92199 -6.39573,-6.39573 z"
       inkscape:label="VG-15" />
    <path
       id="VG-14"
       style="opacity:0.79;fill:#e6e6e6;fill-opacity:1;stroke:#2ebdbd;stroke-width:0.589999;stroke-dasharray:none;stroke-opacity:0.968553"
       d="m 164.69304,316.11416 7.32104,7.32105 -17.48707,17.48707 32.21893,32.21893 69.9718,-69.9718 -32.21893,-32.21893 -37.85231,37.85231 -7.32105,-7.32104 z"
       inkscape:label="VG-14" />
    <path
       id="VG-13"
       style="opacity:0.79;fill:#e6e6e6;fill-opacity:1;stroke:#2ebdbd;stroke-width:0.59;stroke-dasharray:none;stroke-opacity:0.968553"
       d="m 95.788799,399.6301 6.491021,6.49102 -27.117269,27.11727 6.303192,6.30319 -6.4192,6.4192 6.869436,6.86944 -12.455855,12.45585 12.58981,12.58981 -6.091888,6.09189 6.870815,6.87082 6.091888,-6.09189 0.05664,0.0566 19.196841,-19.19685 -6.99234,-6.99234 26.79548,-26.79548 0.0304,0.0304 57.83084,-57.83084 -32.21893,-32.21893 z"
       inkscape:label="VG-13" />
    <path
       id="VG-12"
       style="opacity:0.79;fill:#e6e6e6;fill-opacity:1;stroke:#2ebdbd;stroke-width:0.59;stroke-dasharray:none;stroke-opacity:0.968553"
       d="m 83.841183,491.99454 5.201103,5.2011 -6.290768,6.29077 39.233382,39.23338 -7.45915,7.45915 6.86943,6.86943 7.45915,-7.45915 6.43577,6.43577 -7.33485,7.33486 6.86944,6.86943 7.33485,-7.33485 12.28598,12.28598 -7.4412,7.44119 6.87081,6.87081 7.4412,-7.44119 5.5367,5.5367 -7.71603,7.71603 6.86944,6.86943 7.71603,-7.71602 6.67884,6.67884 31.71484,-31.71484 -97.64979,-97.6498 -0.0635,0.0635 -5.2011,-5.2011 z"
       inkscape:label="VG-12" />
    <path
       id="VG-11"
       style="opacity:0.79;fill:#e6e6e6;fill-opacity:1;stroke:#2ebdbd;stroke-width:0.590001;stroke-dasharray:none;stroke-opacity:0.968553"
       d="m 173.79428,609.70435 6.86943,6.86942 7.45915,-7.45914 4.41389,4.41389 -7.25475,7.25475 21.5709,21.5709 7.25475,-7.25475 11.55678,11.55678 -7.38319,7.38319 13.48198,13.48198 7.38319,-7.38319 25.48762,25.48761 31.87505,-31.87505 -83.36541,-83.36541 -28.0343,28.03431 -0.0152,-0.0152 z"
       inkscape:label="VG-11" />
    <path
       id="VG-10"
       style="opacity:0.79;fill:#e6e6e6;fill-opacity:1;stroke:#2ebdbd;stroke-width:0.589999;stroke-dasharray:none;stroke-opacity:0.968553"
       d="m 265.62839,686.74998 5.68309,5.68309 -7.31828,7.31828 14.05927,14.05927 7.31828,-7.31828 18.59608,18.59609 -7.07521,7.07521 6.86944,6.86943 7.07521,-7.07521 6.05322,6.05322 -7.07383,7.07382 6.86944,6.86944 7.07382,-7.07383 18.88058,18.88058 31.90819,-31.90819 -77.01111,-77.01111 z"
       inkscape:label="VG-10" />
    <path
       id="VG-09"
       style="opacity:0.79;fill:#e6e6e6;fill-opacity:1;stroke:#2ebdbd;stroke-width:0.589998;stroke-dasharray:none;stroke-opacity:0.968553"
       d="m 336.38879,771.92873 18.42483,18.42482 6.37639,-6.37639 13.11186,13.11186 6.26728,-6.26728 26.88939,26.88939 6.58631,-6.58631 5.83087,5.83086 6.64847,-6.64846 6.49516,6.49516 5.90682,-5.90682 6.64571,6.6457 13.59247,-13.59248 6.61807,6.61808 6.37639,-6.37639 7.21885,7.21884 13.83416,-13.83415 -7.21885,-7.21885 0.0539,-0.0539 -6.61807,-6.61807 0.0746,-0.0746 -19.69817,-19.69817 -26.5994,26.59939 -57.69549,-57.6955 -18.64441,18.64442 -0.004,-0.004 z"
       inkscape:label="VG-09" />
    <path
       id="VG-08"
       style="opacity:0.79;fill:#e6e6e6;fill-opacity:1;stroke:#2ebdbd;stroke-width:0.59;stroke-dasharray:none;stroke-opacity:0.968553"
       d="m 460.93488,762.89792 25.63814,25.63814 10.11633,-10.11632 7.27546,7.27546 13.28864,-13.28863 -7.27547,-7.27547 14.10209,-14.10208 5.86263,5.86264 5.28673,-5.28673 7.17464,7.17464 13.17677,-13.17676 -7.17464,-7.17465 6.65675,-6.65675 7.28098,7.28099 19.31009,-19.31009 -15.83394,-15.83395 -0.076,0.076 -22.94782,-22.94782 z"
       inkscape:label="VG-08" />
    <path
       id="VG-07"
       style="opacity:0.79;fill:#e6e6e6;fill-opacity:1;stroke:#2ebdbd;stroke-width:0.59;stroke-dasharray:none;stroke-opacity:0.968553"
       d="m 577.23323,646.52776 0.0635,0.0635 -15.92234,15.92233 -2.56878,2.56878 -14.89482,14.89482 32.29351,32.29351 17.4636,-17.4636 -6.48411,-6.48411 15.92233,-15.92234 5.84192,5.84192 11.01955,-11.01954 7.13321,7.13321 6.86943,-6.86943 -7.13321,-7.13321 12.41718,-12.41719 7.00615,7.00616 13.29002,-13.29002 -7.00616,-7.00615 6.54489,-6.54488 -31.71482,-31.71482 z"
       inkscape:label="VG-07" />
    <path
       id="VG-06"
       style="opacity:0.79;fill:#e6e6e6;fill-opacity:1;stroke:#2ebdbd;stroke-width:0.59;stroke-dasharray:none;stroke-opacity:0.968553"
       d="m 628.33688,595.29428 31.77976,31.77975 4.23711,-4.23711 6.80591,6.8059 21.70071,-21.70072 -6.8059,-6.8059 5.77701,-5.77701 6.74237,6.74238 19.45373,-19.45372 -6.74238,-6.74238 12.13407,-12.13407 6.48549,6.48549 13.29001,-13.29001 -10.0804,-10.08041 -28.18484,-28.18484 z"
       inkscape:label="VG-06" />
    <path
       id="VG-05"
       style="opacity:0.79;fill:#e6e6e6;fill-opacity:1;stroke:#2ebdbd;stroke-width:0.59;stroke-dasharray:none;stroke-opacity:0.968553"
       d="m 744.97912,439.18388 12.22245,12.22245 -10e-4,10e-4 7.55168,7.55169 -58.67329,58.67328 25.52628,25.52628 0.047,-0.047 6.14161,6.14161 5.62647,-5.62647 6.75618,6.75618 6.87081,-6.87081 -6.75618,-6.75618 13.44194,-13.44193 -6.14162,-6.14161 5.57123,-5.57123 7.01169,7.01168 6.86943,-6.86943 -7.01169,-7.01168 25.0512,-25.0512 -6.77552,-6.77552 14.0206,-14.0206 -15.77318,-15.77317 6.31286,-6.31286 -10.52926,-10.52927 6.51311,-6.51311 -12.22244,-12.22245 z"
       inkscape:label="VG-05" />
    <path
       id="VG-04"
       style="opacity:0.79;fill:#e6e6e6;fill-opacity:1;stroke:#2ebdbd;stroke-width:0.59;stroke-dasharray:none;stroke-opacity:0.968553"
       d="m 661.13863,355.255 82.75359,82.75359 31.56292,-31.56292 -57.31708,-57.31708 6.65675,-6.65675 -6.86943,-6.86943 -6.65675,6.65675 -6.63051,-6.63051 6.683,-6.68299 -6.86944,-6.86944 -6.68299,6.683 -5.06714,-5.06714 z"
       inkscape:label="VG-04" />
    <path
       id="VG-03"
       style="opacity:0.79;fill:#e6e6e6;fill-opacity:1;stroke:#2ebdbd;stroke-width:0.59;stroke-dasharray:none;stroke-opacity:0.968553"
       d="m 609.80848,250.65983 0.0193,0.0193 -26.62423,26.62423 76.97799,76.97799 31.58503,-31.58502 -13.73886,-13.73886 7.26027,-7.26028 -12.32741,-12.32741 -7.26028,7.26027 -38.60361,-38.60361 7.23818,-7.23818 -12.32741,-12.32741 z"
       inkscape:label="VG-03" />
    <path
       id="VG-02"
       style="opacity:0.79;fill:#e6e6e6;fill-opacity:1;stroke:#2ebdbd;stroke-width:0.59;stroke-dasharray:none;stroke-opacity:0.968553"
       d="m 505.00475,198.9775 76.91444,76.91443 31.9731,-31.9731 -0.0193,-0.0193 6.84733,-6.84733 -6.86943,-6.86943 -6.84734,6.84733 -25.27768,-25.27768 6.45649,-6.45649 -6.86944,-6.86944 -6.45648,6.45649 -5.64857,-5.64857 6.35567,-6.35567 -6.86943,-6.86943 -6.35567,6.35567 -25.36055,-25.36055 z"
       inkscape:label="VG-02" />
    <path
       id="VG-01"
       style="opacity:0.79;fill:#e6e6e6;fill-opacity:1;stroke:#2ebdbd;stroke-width:0.59;stroke-dasharray:none;stroke-opacity:0.968553"
       d="m 401.25617,107.42651 6.67608,6.67608 4.55891,4.5589 14.12418,14.12419 6.03526,-6.03527 5.64995,5.64995 0.0635,-0.0635 11.55539,11.5554 53.93071,53.9307 31.90819,-31.90819 -57.0754,-57.0754 -6.09879,6.0988 -13.29002,-13.29002 -6.99787,6.99788 -12.96961,-12.969607 -6.48411,6.484117 -6.48412,-6.484124 -10.85105,10.851044 -6.67608,-6.676074 z"
       inkscape:label="VG-01" />
  </g>
  <g
     inkscape:groupmode="layer"
     id="layer7"
     inkscape:label="Factory"
     transform="translate(-69.042931,-95.259223)">
    <rect
       style="opacity:0.79;fill:#e6e6e6;fill-opacity:1;stroke:#2ebdbd;stroke-width:0.589999;stroke-dasharray:none;stroke-opacity:0.968553"
       id="FT-14"
       width="117.97302"
       height="35.573376"
       x="-22.190283"
       y="397.2417"
       inkscape:label="FT-14"
       transform="rotate(-45)" />
    <rect
       style="opacity:0.79;fill:#e6e6e6;fill-opacity:1;stroke:#2ebdbd;stroke-width:0.59;stroke-dasharray:none;stroke-opacity:0.968553"
       id="FT-13"
       width="117.22463"
       height="35.533092"
       x="-140.79959"
       y="397.2197"
       inkscape:label="FT-13"
       transform="rotate(-45)" />
    <path
       id="FT-12"
       style="opacity:0.79;fill:#e6e6e6;fill-opacity:1;stroke:#2ebdbd;stroke-width:0.59;stroke-dasharray:none;stroke-opacity:0.968553"
       d="m 103.37224,458.62241 22.07224,22.07223 -0.0649,0.0649 9.95198,9.95197 25.03876,-25.03876 -6.9744,-6.9744 52.15189,-52.15188 -25.04981,-25.04981 z"
       inkscape:label="FT-12" />
    <rect
       style="opacity:0.79;fill:#e6e6e6;fill-opacity:1;stroke:#2ebdbd;stroke-width:0.59;stroke-dasharray:none;stroke-opacity:0.968553"
       id="FT-11"
       width="35.410034"
       height="127.33994"
       x="-251.33603"
       y="443.99524"
       inkscape:label="FT-11"
       transform="rotate(-45)" />
    <rect
       style="opacity:0.79;fill:#e6e6e6;fill-opacity:1;stroke:#2ebdbd;stroke-width:0.59;stroke-dasharray:none;stroke-opacity:0.968553"
       id="FT-10"
       width="35.455433"
       height="117.98806"
       x="-251.33603"
       y="572.74249"
       inkscape:label="FT-10"
       transform="rotate(-45)" />
    <rect
       style="opacity:0.79;fill:#e6e6e6;fill-opacity:1;stroke:#2ebdbd;stroke-width:0.59;stroke-dasharray:none;stroke-opacity:0.968553"
       id="FT-09"
       width="35.455433"
       height="117.48869"
       x="-251.29063"
       y="692.09247"
       inkscape:label="FT-09"
       transform="rotate(-45)" />
    <path
       id="FT-08"
       style="opacity:0.79;fill:#e6e6e6;fill-opacity:1;stroke:#2ebdbd;stroke-width:0.59;stroke-dasharray:none;stroke-opacity:0.968553"
       d="m 395.73328,751.11327 37.31646,37.31646 25.0719,-25.07191 -0.0152,-0.0152 38.52075,-38.52075 -24.55676,-24.55677 -38.52076,38.52075 -12.74449,-12.74449 z"
       inkscape:label="FT-08" />
    <rect
       style="opacity:0.79;fill:#e6e6e6;fill-opacity:1;stroke:#2ebdbd;stroke-width:0.59;stroke-dasharray:none;stroke-opacity:0.968553"
       id="FT-07"
       width="125.88722"
       height="34.683674"
       x="-159.99625"
       y="829.01123"
       inkscape:label="FT-07"
       transform="rotate(-45)" />
    <rect
       style="opacity:0.79;fill:#e6e6e6;fill-opacity:1;stroke:#2ebdbd;stroke-width:0.59;stroke-dasharray:none;stroke-opacity:0.968553"
       id="FT-06"
       width="119.12299"
       height="34.674549"
       x="-32.656376"
       y="829.02039"
       inkscape:label="FT-06"
       transform="rotate(-45)" />
    <rect
       style="opacity:0.79;fill:#e6e6e6;fill-opacity:1;stroke:#2ebdbd;stroke-width:0.589999;stroke-dasharray:none;stroke-opacity:0.968553"
       id="FT-05"
       width="126.80942"
       height="34.774467"
       x="87.919365"
       y="828.92041"
       inkscape:label="FT-05"
       transform="rotate(-45)" />
    <rect
       style="opacity:0.79;fill:#e6e6e6;fill-opacity:1;stroke:#2ebdbd;stroke-width:0.589999;stroke-dasharray:none;stroke-opacity:0.968553"
       id="FT-04"
       width="35.509171"
       height="126.93136"
       x="179.32132"
       y="700.26404"
       inkscape:label="FT-04"
       transform="rotate(-45)" />
    <rect
       style="opacity:0.79;fill:#e6e6e6;fill-opacity:1;stroke:#2ebdbd;stroke-width:0.589999;stroke-dasharray:none;stroke-opacity:0.968553"
       id="FT-03"
       width="35.538433"
       height="126.47739"
       x="179.31229"
       y="572.33392"
       inkscape:label="FT-03"
       transform="rotate(-45)" />
    <rect
       style="opacity:0.79;fill:#e6e6e6;fill-opacity:1;stroke:#2ebdbd;stroke-width:0.59;stroke-dasharray:none;stroke-opacity:0.968553"
       id="FT-02"
       width="35.43396"
       height="126.93136"
       x="179.41678"
       y="443.85901"
       inkscape:label="FT-02"
       transform="rotate(-45)" />
    <path
       id="FT-01"
       style="opacity:0.79;fill:#e6e6e6;fill-opacity:1;stroke:#2ebdbd;stroke-width:0.59;stroke-dasharray:none;stroke-opacity:0.968553"
       d="m 349.61251,212.22747 25.1161,25.1161 58.12915,-58.12915 6.87082,6.87082 25.10091,-25.10092 -6.87082,-6.87081 -2.19589,-2.1959 -22.92021,-22.9202 z"
       inkscape:label="FT-01" />
  </g>
  <g
     inkscape:groupmode="layer"
     id="layer6"
     inkscape:label="Town"
     transform="translate(-69.042931,-95.259223)">
    <rect
       style="opacity:0.79;fill:#e6e6e6;fill-opacity:1;stroke:#2ebdbd;stroke-width:0.589999;stroke-dasharray:none;stroke-opacity:0.968553"
       id="TW-10"
       width="145.25369"
       height="35.048744"
       x="-13.110723"
       y="434.23477"
       inkscape:label="TW-10"
       transform="rotate(-45)" />
    <rect
       style="opacity:0.79;fill:#e6e6e6;fill-opacity:1;stroke:#2ebdbd;stroke-width:0.59;stroke-dasharray:none;stroke-opacity:0.968553"
       id="TW-09"
       width="145.29584"
       height="35.039619"
       x="-159.77121"
       y="434.32822"
       inkscape:label="TW-09"
       transform="rotate(-45)" />
    <path
       id="TW-08"
       style="opacity:0.79;fill:#e6e6e6;fill-opacity:1;stroke:#2ebdbd;stroke-width:0.59;stroke-dasharray:none;stroke-opacity:0.968553"
       d="m 176.9956,437.35535 0.0318,0.0317 -21.54052,21.54052 70.3364,70.33641 25.29564,-25.29565 -45.636,-45.636 12.51524,-12.51524 -24.73217,-24.73216 z"
       inkscape:label="TW-08" />
    <rect
       style="opacity:0.79;fill:#e6e6e6;fill-opacity:1;stroke:#2ebdbd;stroke-width:0.59;stroke-dasharray:none;stroke-opacity:0.968553"
       id="TW-07"
       width="35.773209"
       height="137.00958"
       x="-214.56409"
       y="535.42572"
       inkscape:label="TW-07"
       transform="rotate(-45)" />
    <rect
       style="opacity:0.79;fill:#e6e6e6;fill-opacity:1;stroke:#2ebdbd;stroke-width:0.59;stroke-dasharray:none;stroke-opacity:0.968553"
       id="TW-06"
       width="35.696655"
       height="117.17088"
       x="-214.4733"
       y="673.84265"
       inkscape:label="TW-06"
       transform="rotate(-45)" />
    <rect
       style="opacity:0.79;fill:#e6e6e6;fill-opacity:1;stroke:#2ebdbd;stroke-width:0.590001;stroke-dasharray:none;stroke-opacity:0.968553"
       id="TW-05"
       width="135.51147"
       height="35.273846"
       x="-214.56406"
       y="792.37549"
       inkscape:label="TW-05"
       transform="rotate(-45)" />
    <rect
       style="opacity:0.79;fill:#e6e6e6;fill-opacity:1;stroke:#2ebdbd;stroke-width:0.59;stroke-dasharray:none;stroke-opacity:0.968553"
       id="TW-04"
       width="154.21524"
       height="35.067547"
       x="-77.554482"
       y="792.37549"
       inkscape:label="TW-04"
       transform="rotate(-45)" />
    <path
       id="TW-03"
       style="opacity:0.79;fill:#e6e6e6;fill-opacity:1;stroke:#2ebdbd;stroke-width:0.59;stroke-dasharray:none;stroke-opacity:0.968553"
       d="m 615.36727,413.73218 45.77964,45.77964 -45.58352,45.58353 24.66587,24.66587 52.13255,-52.13255 -0.0801,-0.0801 18.53669,-18.53669 -70.36541,-70.36541 z"
       inkscape:label="TW-03" />
    <rect
       style="opacity:0.79;fill:#e6e6e6;fill-opacity:1;stroke:#2ebdbd;stroke-width:0.59;stroke-dasharray:none;stroke-opacity:0.968553"
       id="TW-02"
       width="35.460545"
       height="163.29984"
       x="142.48709"
       y="563.02228"
       inkscape:label="TW-02"
       transform="rotate(-45)" />
    <path
       id="TW-01"
       style="opacity:0.79;fill:#e6e6e6;fill-opacity:1;stroke:#2ebdbd;stroke-width:0.589999;stroke-dasharray:none;stroke-opacity:0.968553"
       d="m 401.43847,212.66112 24.75288,24.75288 6.40539,-6.40539 65.25823,65.25822 25.06362,-25.06362 -68.05351,-68.0535 -10e-4,0.001 -21.9576,-21.9576 z"
       inkscape:label="TW-01" />
  </g>
  <g
     inkscape:groupmode="layer"
     id="layer4"
     inkscape:label="Metropolis"
     transform="translate(-69.042931,-95.259223)">
    <rect
       style="opacity:0.79;fill:#e6e6e6;fill-opacity:1;stroke:#2ebdbd;stroke-width:0.589999;stroke-dasharray:none;stroke-opacity:0.968553"
       id="MP-08"
       width="135.87144"
       height="35.531204"
       x="-140.65378"
       y="470.79477"
       inkscape:label="MP-08"
       transform="rotate(-45)" />
    <rect
       style="opacity:0.79;fill:#e6e6e6;fill-opacity:1;stroke:#2ebdbd;stroke-width:0.590001;stroke-dasharray:none;stroke-opacity:0.968553"
       id="MP-07"
       width="35.354179"
       height="136.81621"
       x="-177.39642"
       y="470.77457"
       inkscape:label="MP-07"
       transform="rotate(-45)" />
    <rect
       style="opacity:0.79;fill:#e6e6e6;fill-opacity:1;stroke:#2ebdbd;stroke-width:0.59;stroke-dasharray:none;stroke-opacity:0.968553"
       id="MP-06"
       width="35.511063"
       height="145.61687"
       x="-177.50282"
       y="608.84717"
       inkscape:label="MP-06"
       transform="rotate(-45)" />
    <rect
       style="opacity:0.79;fill:#e6e6e6;fill-opacity:1;stroke:#2ebdbd;stroke-width:0.59;stroke-dasharray:none;stroke-opacity:0.968553"
       id="MP-05"
       width="135.08089"
       height="35.293194"
       x="-177.54308"
       y="755.7204"
       inkscape:label="MP-05"
       transform="rotate(-45)" />
    <rect
       style="opacity:0.79;fill:#e6e6e6;fill-opacity:1;stroke:#2ebdbd;stroke-width:0.589999;stroke-dasharray:none;stroke-opacity:0.968553"
       id="MP-04"
       width="146.02412"
       height="35.155113"
       x="-40.947178"
       y="755.72217"
       inkscape:label="MP-04"
       transform="rotate(-45)" />
    <rect
       style="opacity:0.79;fill:#e6e6e6;fill-opacity:1;stroke:#2ebdbd;stroke-width:0.59;stroke-dasharray:none;stroke-opacity:0.968553"
       id="MP-03"
       width="34.865265"
       height="117.72991"
       x="106.35073"
       y="673.11633"
       inkscape:label="MP-03"
       transform="rotate(-45)" />
    <rect
       style="opacity:0.79;fill:#e6e6e6;fill-opacity:1;stroke:#2ebdbd;stroke-width:0.59;stroke-dasharray:none;stroke-opacity:0.968553"
       id="MP-02"
       width="34.865265"
       height="164.15727"
       x="106.26003"
       y="507.77866"
       inkscape:label="MP-02"
       transform="rotate(-45)" />
    <rect
       style="opacity:0.79;fill:#e6e6e6;fill-opacity:1;stroke:#2ebdbd;stroke-width:0.59;stroke-dasharray:none;stroke-opacity:0.968553"
       id="MP-01"
       width="144.42363"
       height="35.595402"
       x="-3.3296261"
       y="470.73053"
       inkscape:label="MP-01"
       transform="rotate(-45)" />
  </g>
  <g
     inkscape:groupmode="layer"
     id="layer3"
     inkscape:label="Research Center"
     transform="translate(-69.042931,-95.259223)">
    <path
       id="RC-05"
       style="opacity:0.79;fill:#e6e6e6;fill-opacity:1;stroke:#2ebdbd;stroke-width:0.59;stroke-dasharray:none;stroke-opacity:0.968553"
       d="m 259.62627,458.48155 21.82778,21.82778 3.40295,3.40295 12.84117,12.84116 24.65344,-24.65344 -12.84117,-12.84116 77.49173,-77.49173 -25.23073,-25.23073 z"
       inkscape:label="RC-05" />
    <path
       id="RC-04"
       style="opacity:0.79;fill:#e6e6e6;fill-opacity:1;stroke:#2ebdbd;stroke-width:0.59;stroke-dasharray:none;stroke-opacity:0.968553"
       d="m 298.66078,497.6431 106.38228,106.38229 2.56878,2.56878 26.4516,26.4516 11.04164,-11.04163 -26.4516,-26.4516 13.74024,-13.74025 -108.95107,-108.95107 z"
       inkscape:label="RC-04" />
    <rect
       style="opacity:0.782609;fill:#e6e6e6;stroke:#2ebdbd;stroke-width:0.589606;stroke-opacity:0.968553"
       id="RC-03"
       width="165.12686"
       height="36.057804"
       x="-123.78825"
       y="718.46777"
       inkscape:label="RC-03"
       transform="rotate(-45)" />
    <path
       id="RC-02"
       style="opacity:0.79;fill:#e6e6e6;stroke:#2ebdbd;stroke-width:0.589999;stroke-dasharray:none;stroke-opacity:0.968553"
       d="m 485.31763,388.24872 71.27415,71.27415 -18.48697,18.48697 25.46827,25.46828 18.48698,-18.48698 2.80495,-2.80495 22.94092,-22.94092 -96.74243,-96.74242 z"
       inkscape:label="RC-02" />
    <path
       id="RC-01"
       style="opacity:0.79;fill:#e6e6e6;fill-opacity:1;stroke:#2ebdbd;stroke-width:0.589999;stroke-dasharray:none;stroke-opacity:0.968553"
       d="m 362.67051,355.43731 25.23073,25.23073 44.90681,-44.9068 51.59255,51.59255 25.74173,-25.74173 -52.91562,-52.91562 -0.01,0.01 -23.90766,-23.90766 z"
       inkscape:label="RC-01" />
  </g>
  <g
     inkscape:groupmode="layer"
     id="layer2"
     inkscape:label="Military Base"
     transform="translate(-69.042931,-95.259223)">
    <path
       id="MB-03"
       style="opacity:0.79;fill:#e6e6e6;fill-opacity:1;stroke:#2ebdbd;stroke-width:0.589999;stroke-dasharray:none;stroke-opacity:0.968553"
       d="m 331.15868,478.62995 102.27223,102.27223 22.26696,-22.26697 2.69585,-2.69584 38.90744,-38.90745 -25.4227,-25.4227 -38.90745,38.90745 -76.84952,-76.84953 z"
       inkscape:label="MB-03" />
    <path
       id="MB-02"
       style="opacity:0.79;fill:#e6e6e6;fill-opacity:1;stroke:#2ebdbd;stroke-width:0.59;stroke-dasharray:none;stroke-opacity:0.968553"
       d="m 453.02165,408.10681 51.15176,51.15176 -31.47207,31.47206 25.45063,25.45063 31.47206,-31.47207 0.39507,-0.39506 24.84239,-24.84239 -76.60239,-76.60238 z"
       inkscape:label="MB-02" />
    <path
       id="MB-01"
       style="opacity:0.79;fill:#e6e6e6;fill-opacity:1;stroke:#2ebdbd;stroke-width:0.59;stroke-dasharray:none;stroke-opacity:0.968553"
       d="m 408.43911,361.91451 -71.04901,71.14023 -25.93508,25.93508 18.76043,18.76042 25.93508,-25.93507 6.58355,6.58354 70.32947,-70.42069 19.22584,19.22585 25.15477,-25.15477 -44.53944,-44.53944 -24.43523,24.43523 z"
       inkscape:label="MB-01" />
  </g>
  <g
     inkscape:groupmode="layer"
     id="layer1"
     inkscape:label="Arcadia"
     style="display:inline"
     transform="translate(-69.042931,-95.259223)">
    <rect
       style="display:inline;opacity:0.782609;fill:#e6e6e6;stroke:#2ebdbd;stroke-width:0.589605;stroke-opacity:0.968553"
       id="AR-01"
       width="98.126999"
       height="98.14917"
       x="-67.56266"
       y="581.89642"
       inkscape:label="AR-01"
       transform="rotate(-45)"
       sodipodi:type="rect" />
  </g>
</svg>
